<?xml version="1.0" standalone="no"?>
<!DOCTYPE svg PUBLIC "-//W3C//DTD SVG 20010904//EN"
 "http://www.w3.org/TR/2001/REC-SVG-20010904/DTD/svg10.dtd">
<svg version="1.0" xmlns="http://www.w3.org/2000/svg"
 width="800.000000pt" height="768.000000pt" viewBox="0 0 800.000000 768.000000"
 preserveAspectRatio="xMidYMid meet">

<g transform="translate(0.000000,768.000000) scale(0.100000,-0.100000)"
fill="#000000" stroke="none">
<path d="M3880 6329 c-366 -38 -707 -147 -1019 -327 -208 -119 -462 -331 -613
-510 -40 -48 -75 -89 -79 -92 -14 -13 -132 -183 -170 -245 -65 -108 -152 -281
-188 -375 -18 -47 -37 -94 -41 -105 -12 -29 -26 -74 -40 -125 -7 -25 -16 -56
-20 -70 -36 -112 -64 -287 -81 -498 -20 -253 14 -570 91 -837 6 -22 14 -52 17
-68 3 -15 9 -30 14 -33 5 -3 9 -14 9 -25 0 -10 4 -27 9 -37 5 -9 24 -54 41
-100 183 -471 552 -912 995 -1189 141 -88 388 -204 515 -242 19 -6 62 -19 95
-29 72 -23 168 -44 315 -71 30 -5 128 -16 218 -22 234 -18 516 9 742 70 19 6
51 14 70 19 242 65 548 214 770 376 263 193 533 490 680 748 112 196 208 425
258 613 26 101 32 123 41 170 74 376 67 749 -20 1098 -92 368 -250 696 -469
972 -84 106 -266 292 -360 368 -41 34 -77 64 -80 68 -3 3 -59 42 -125 86 -145
97 -312 185 -460 242 -60 24 -119 46 -130 51 -32 12 -155 48 -210 60 -159 36
-173 38 -335 55 -148 16 -309 17 -440 4z m540 -88 c183 -30 293 -57 455 -113
163 -56 345 -144 345 -168 0 -8 -14 -40 -31 -70 -17 -30 -53 -98 -81 -150 -28
-52 -54 -99 -58 -105 -4 -5 -37 -68 -75 -140 -37 -71 -90 -170 -117 -219 -27
-48 -47 -95 -44 -102 6 -15 43 -19 62 -6 11 7 62 95 159 277 26 50 66 124 88
165 23 41 69 127 103 190 34 63 69 116 78 118 28 6 245 -150 390 -282 276
-251 503 -586 636 -940 44 -117 100 -326 118 -441 28 -173 32 -205 32 -263 0
-60 -6 -72 -25 -53 -19 19 -151 79 -230 104 -326 107 -844 185 -1435 217 -296
16 -370 22 -370 32 0 11 109 220 186 355 13 23 24 44 24 47 0 3 -20 6 -45 6
-25 0 -45 -4 -45 -9 0 -5 -20 -44 -43 -87 -24 -44 -70 -128 -102 -189 -32 -60
-62 -116 -68 -122 -7 -10 -81 -13 -306 -13 -517 0 -1101 -43 -1501 -111 -369
-62 -618 -131 -756 -209 -29 -16 -55 -26 -58 -23 -18 19 22 324 64 483 90 338
228 628 423 890 93 124 345 376 472 471 266 200 537 328 870 413 83 21 128 30
290 55 76 12 508 6 595 -8z m-153 -2044 c8 -9 -12 -47 -130 -260 -15 -26 -27
-53 -27 -60 0 -11 58 -44 63 -36 2 2 9 17 17 34 8 16 40 74 70 130 31 55 67
121 80 148 l25 47 129 0 c399 0 1076 -74 1461 -160 300 -67 525 -167 525 -234
0 -92 -285 -204 -707 -279 -342 -61 -564 -86 -1048 -117 -348 -22 -1165 -12
-1555 20 -730 60 -1263 179 -1432 320 -21 17 -38 40 -38 50 0 46 122 120 295
179 254 86 734 162 1290 202 300 22 965 33 982 16z m-2457 -574 c79 -39 274
-104 365 -123 527 -107 797 -139 1442 -170 641 -31 1497 11 2038 101 345 57
609 129 749 203 37 20 70 36 72 36 7 0 4 -61 -6 -129 -6 -36 -15 -95 -21 -131
-49 -309 -179 -644 -352 -905 -154 -233 -374 -477 -532 -592 -17 -12 -50 -36
-75 -55 -134 -101 -286 -188 -445 -257 -55 -23 -109 -46 -120 -51 -25 -11
-125 -43 -185 -60 -25 -7 -56 -16 -70 -20 -14 -4 -52 -13 -85 -20 -33 -6 -78
-15 -100 -20 -128 -28 -552 -35 -700 -12 -447 69 -794 214 -1137 474 -119 91
-363 336 -452 456 -197 263 -352 586 -420 877 -9 39 -21 86 -26 105 -5 19 -13
67 -19 105 -5 39 -15 103 -20 143 -11 69 -8 98 7 90 4 -2 45 -23 92 -45z"/>
<path d="M4766 5057 c-24 -17 -13 -37 20 -37 20 0 25 4 22 22 -4 27 -18 32
-42 15z"/>
<path d="M4665 5048 c-29 -16 -29 -16 -15 -33 12 -15 12 -25 -6 -138 -4 -22
-15 -43 -25 -50 -32 -20 -21 -27 41 -27 59 0 80 12 39 23 -19 5 -21 10 -14 39
4 18 12 56 17 83 22 119 22 115 2 115 -11 0 -28 -6 -39 -12z"/>
</g>
</svg>
